<svg width="148" height="156" viewBox="0 0 148 156" fill="none" xmlns="http://www.w3.org/2000/svg">
<path d="M74 0.333336C65.9239 0.333336 58.0292 2.72817 51.3142 7.21499C44.5992 11.7018 39.3655 18.0791 36.2749 25.5404C33.1843 33.0017 32.3757 41.212 33.9513 49.1329C35.5268 57.0537 39.4158 64.3296 45.1265 70.0402C50.8371 75.7508 58.1129 79.6398 66.0338 81.2154C73.9547 82.791 82.1649 81.9823 89.6262 78.8918C97.0876 75.8012 103.465 70.5675 107.952 63.8525C112.439 57.1374 114.833 49.2427 114.833 41.1667C114.833 30.337 110.531 19.9509 102.874 12.2931C95.2158 4.63541 84.8297 0.333336 74 0.333336ZM74 65.6667C69.1544 65.6667 64.4175 64.2298 60.3885 61.5377C56.3595 58.8456 53.2193 55.0192 51.365 50.5424C49.5106 46.0656 49.0254 41.1395 49.9708 36.387C50.9161 31.6344 53.2495 27.2689 56.6759 23.8426C60.1023 20.4162 64.4678 18.0828 69.2203 17.1374C73.9728 16.1921 78.899 16.6773 83.3757 18.5316C87.8525 20.386 91.6789 23.5262 94.371 27.5552C97.0631 31.5842 98.5 36.321 98.5 41.1667C98.5 47.6645 95.9188 53.8961 91.3241 58.4908C86.7295 63.0854 80.4978 65.6667 74 65.6667ZM147.5 155.5V147.333C147.5 132.172 141.477 117.631 130.756 106.91C120.035 96.1896 105.495 90.1667 90.3333 90.1667H57.6667C42.5051 90.1667 27.9646 96.1896 17.2437 106.91C6.5229 117.631 0.5 132.172 0.5 147.333V155.5H16.8333V147.333C16.8333 136.504 21.1354 126.118 28.7931 118.46C36.4509 110.802 46.837 106.5 57.6667 106.5H90.3333C101.163 106.5 111.549 110.802 119.207 118.46C126.865 126.118 131.167 136.504 131.167 147.333V155.5H147.5Z" fill="white" fill-opacity="0.4"/>
</svg>
